<?xml version="1.0" encoding="UTF-8" standalone="no"?>
<svg width="55px" height="60px" viewBox="0 0 55 60" version="1.1" xmlns="http://www.w3.org/2000/svg" xmlns:xlink="http://www.w3.org/1999/xlink" xmlns:sketch="http://www.bohemiancoding.com/sketch/ns">
    <!-- Generator: Sketch 3.3.3 (12072) - http://www.bohemiancoding.com/sketch -->
    <title>qvc</title>
    <desc>Created with Sketch.</desc>
    <defs></defs>
    <g id="Page-1" stroke="none" stroke-width="1" fill="none" fill-rule="evenodd" sketch:type="MSPage">
        <g id="Logos" sketch:type="MSArtboardGroup" transform="translate(-60.000000, -698.000000)" fill="#10152E">
            <g id="qvc" sketch:type="MSLayerGroup" transform="translate(60.000000, 698.000000)">
                <g id="g2826" transform="translate(27.708263, 30.033532) scale(1, -1) translate(-27.708263, -30.033532) translate(0.045925, 0.130934)" sketch:type="MSShapeGroup">
                    <g id="g3118" transform="translate(0.184527, 0.128128)">
                        <g id="g2998" transform="translate(0.000000, 4.480519)">
                            <g id="g3000-Clipped">
                                <g id="g3000" transform="translate(0.094803, 0.175844)">
                                    <g id="g3006" transform="translate(0.082905, 0.052145)">
                                        <path d="M27.4130971,11.5093325 C18.6057795,11.5093325 11.4664138,18.6486982 11.4664138,27.4553158 C11.4664138,36.2619334 18.6057795,43.4019991 27.4130971,43.4019991 C36.2218145,43.4019991 43.3646799,36.2619334 43.3646799,27.4553158 C43.3646799,23.9584265 42.2363802,20.7254137 40.3276497,18.0964473 L50.2982639,12.7797196 C52.9937245,17.0087439 54.5615852,22.0258982 54.5615852,27.4133196 C54.5615852,42.4731816 42.3525698,54.682197 27.2850085,54.682197 C12.2258463,54.682197 0.0161310622,42.4731816 0.0161310622,27.4133196 C0.0161310622,12.3520576 12.2258463,0.142342351 27.2850085,0.142342351 C31.5063334,0.142342351 35.4994787,1.10335697 39.0684616,2.81610481 L31.9969898,12.1798729 C30.5460187,11.7452115 29.0075554,11.5093325 27.4130971,11.5093325" id="path3008"></path>
                                    </g>
                                </g>
                            </g>
                        </g>
                        <g id="g3010" transform="translate(32.520950, 0.020243)">
                            <path d="M7.1149004,7.50451079 L12.6703068,0.143264771 L21.7547998,7.24763361 L16.1279997,14.2904079 L0.0385290723,16.8682789 L7.1149004,7.50451079 L7.1149004,7.50451079 Z" id="path3012"></path>
                        </g>
                        <g id="g3014" transform="translate(24.265121, 28.403759)">
                            <path d="M0,6.99937817 L1.63785449,6.99937817 L3.40099785,2.1173119 L5.16484115,6.99937817 L6.76419906,6.99937817 L4.03724133,0.0167985076 L2.7262578,0.0167985076 L0,6.99937817 L0,6.99937817 Z" id="path3016"></path>
                        </g>
                        <g id="g3018" transform="translate(16.558442, 28.051948)">
                            <g id="g3020-Clipped">
                                <g id="g3020" transform="translate(0.060781, 0.012691)">
                                    <g id="g3026" transform="translate(14.455548, 0.114370)">
                                        <path d="M5.90982996,2.79975127 C5.89653114,2.75425531 5.00061074,1.56996052 3.71132528,1.57975965 C3.41595152,1.58115953 3.14367571,1.63645462 2.89309797,1.75264429 C2.64182029,1.86813403 2.42553951,2.02562004 2.24285574,2.22300251 C2.05877209,2.42108491 1.91808459,2.65206439 1.81869342,2.91664088 C1.71860231,3.18051744 1.66890673,3.4611925 1.66890673,3.75796614 L1.66890673,3.7775644 C1.66890673,4.07503797 1.71860231,4.35361322 1.81869342,4.61538996 C1.91808459,4.87576683 2.05597234,5.10534643 2.23305661,5.3027289 C2.40944094,5.5008113 2.62292197,5.65549756 2.87279977,5.76818755 C3.12337751,5.8801776 3.3970532,5.94457188 3.69172702,5.93687256 C4.83542541,5.90677523 5.50036634,5.29502958 5.93152803,4.7252802 L6.8470467,5.53440832 C6.69306038,5.81578332 6.5047771,6.0726605 6.27869719,6.29804047 C5.96022548,6.61791206 5.58365894,6.87268942 5.1461978,7.06027276 C4.7094366,7.24855603 4.23137908,7.34304763 3.71132528,7.34304763 C3.19127148,7.34304763 2.7104142,7.24855603 2.27155319,7.06027276 C1.8312923,6.87268942 1.45262594,6.61441237 1.13485417,6.28824134 C0.817082406,5.96137038 0.567904543,5.58200409 0.388020525,5.14944252 C0.208836444,4.71688095 0.118544465,4.25282217 0.118544465,3.75796614 L0.118544465,3.73836788 C0.118544465,3.2428119 0.20673663,2.77945307 0.38312096,2.3468915 C0.560205227,1.91432993 0.807283277,1.53776338 1.12505505,1.2178918 C1.44212688,0.897320281 1.81939336,0.643242853 2.25615456,0.454959581 C2.69361569,0.267376246 3.17167322,0.172884641 3.69172702,0.172884641 C4.21248075,0.172884641 4.69193816,0.267376246 5.13219905,0.454959581 C5.57175999,0.643242853 5.95112629,0.901519908 6.26889806,1.22769093 C6.50127741,1.46636973 6.69656007,1.73304603 6.85614589,2.02771985 L5.90982996,2.79975127 L5.90982996,2.79975127 Z" id="path3028"></path>
                                    </g>
                                    <g id="g3030" transform="translate(0.068804, 0.049976)">
                                        <path d="M7.50451079,0 L6.3517132,1.45797047 C6.59879125,1.74564491 6.80037334,2.06901619 6.95155991,2.43088404 C7.13074399,2.86274567 7.22103597,3.32750438 7.22103597,3.82236042 L7.22103597,3.84195868 C7.22103597,4.33751465 7.13214387,4.80087348 6.95575954,5.23343505 C6.77937521,5.66599663 6.53229716,6.04256317 6.21382545,6.36243475 C5.89605368,6.68230633 5.51948714,6.9370837 5.08272594,7.12466703 C4.64526481,7.31295031 4.16650734,7.40744191 3.64715348,7.40744191 C3.12709968,7.40744191 2.64694234,7.31295031 2.20668145,7.12466703 C1.76712051,6.9370837 1.38845415,6.67880665 1.07068238,6.35263562 C0.752210671,6.0264646 0.503032808,5.64639837 0.323848727,5.2138368 C0.143964708,4.78127522 0.0536727301,4.31721645 0.0536727301,3.82236042 L0.0536727301,3.80276216 C0.0536727301,3.30720618 0.141864895,2.84384735 0.318949163,2.41128578 C0.49603343,1.97872421 0.742411542,1.60215766 1.06018331,1.28228608 C1.37865502,0.96171456 1.75522156,0.707637133 2.19198276,0.51935386 C2.6294439,0.331770525 3.10750142,0.23727892 3.62755522,0.23727892 C4.14760902,0.23727892 4.62776636,0.331770525 5.06802725,0.51935386 C5.12052258,0.542451808 5.17161804,0.569749383 5.22411338,0.595647082 L5.73856768,0 L7.50451079,0 L7.50451079,0 Z M3.64715348,1.64415393 C3.35177972,1.64415393 3.07880397,1.70084889 2.82822623,1.81703857 C2.5776485,1.93252831 2.36066777,2.09001432 2.17868394,2.28739678 C1.99530023,2.48547919 1.85391279,2.71645867 1.75382169,2.98103516 C1.65443052,3.24491172 1.60473493,3.52558678 1.60473493,3.82236042 L1.60473493,3.84195868 C1.60473493,4.13943225 1.65443052,4.4180075 1.75382169,4.6790843 C1.85391279,4.94016111 1.99110061,5.16974071 2.16818487,5.36712318 C2.3445692,5.56520558 2.55875018,5.71989184 2.80862798,5.83258183 C3.05990565,5.94457188 3.33218146,6.00126684 3.62755522,6.00126684 C3.92922842,6.00126684 4.20430398,5.94247206 4.45138203,5.8283822 C4.69846008,5.71219252 4.91334099,5.55540645 5.0967247,5.35802399 C5.27940847,5.15924165 5.42079591,4.92826217 5.52018708,4.66368567 C5.62027819,4.40050905 5.66997377,4.11913405 5.66997377,3.82236042 L5.66997377,3.80276216 C5.66997377,3.50598852 5.62027819,3.2260134 5.52018708,2.96563653 C5.42079591,2.70455972 5.28290816,2.47498012 5.10652383,2.27759766 C4.9301395,2.07951525 4.71805834,1.92412906 4.47028035,1.81283894 C4.22390224,1.70014896 3.94882668,1.64415393 3.64715348,1.64415393 L3.64715348,1.64415393 Z" id="path3032"></path>
                                    </g>
                                </g>
                            </g>
                        </g>
                        <g id="g3034" transform="translate(32.017854, 5.551107)">
                            <g id="g3036">
                                <g id="g3042">
                                    <g id="g3044">
                                        <path d="M1.69222716,0.0406288858 C3.63595448,0.488589088 5.49988888,1.13883132 7.26163236,1.96545788 L7.26163236,1.96545788 C7.26793181,1.96895757 7.27493118,1.9731572 7.28123062,1.97665689 L7.28123062,1.97665689 L0.141864895,11.238934 L1.69222716,0.0406288858 L1.69222716,0.0406288858 Z" id="path3052"></path>
                                    </g>
                                </g>
                            </g>
                        </g>
                    </g>
                </g>
            </g>
        </g>
    </g>
</svg>